<?xml version="1.0" encoding="UTF-8"?>
<svg id="_レイヤー_2" data-name="レイヤー 2" xmlns="http://www.w3.org/2000/svg" viewBox="0 0 1158.98 383.48">
  <defs>
    <style>
      .cls-1 {
        fill: #3b82f6;
      }

      .cls-1, .cls-2, .cls-3 {
        stroke-width: 0px;
      }

      .cls-2 {
        fill: #fff;
      }

      .cls-3 {
        fill: #f91880;
      }
    </style>
  </defs>
  <g id="logo">
    <g id="logo-2" data-name="logo">
      <polygon class="cls-3" points="169.84 0 201.55 69.29 64.14 381.7 0 381.7 169.84 0"/>
      <polygon class="cls-1" points="185.69 179.1 250.53 179.1 339.94 381.7 275.87 381.7 185.69 179.1"/>
    </g>
    <g>
      <path class="cls-2" d="m414.72,319.98c15.87,17.13,36.36,25.69,61.48,25.69,11.24,0,20.43-2.25,27.55-6.75,7.12-4.5,10.68-10.81,10.68-18.92,0-7.2-2.12-12.22-6.37-15.05-4.37-2.96-10.18-4.57-17.42-4.83l-34.46-3.09c-16.36-1.54-29.65-7.2-39.89-16.98-10.49-9.52-15.86-22.84-16.11-39.95.25-20.59,7.29-36.03,21.14-46.32,13.47-10.29,30.56-15.44,51.26-15.44,8.98,0,17.02.58,24.13,1.74,7.11,1.28,13.78,3.08,20.02,5.4,11.97,5.01,22.7,11.77,32.18,20.25l-24.17,29.12c-7.5-5.58-15.43-10.2-23.79-13.83-8.24-3.24-17.73-4.87-28.48-4.87-12.24,0-20.79,2.26-25.66,6.76-5.12,4.51-7.68,10.31-7.68,17.39-.26,4.51,1.68,8.44,5.8,11.79,3.75,3.74,10.36,6.12,19.85,7.15l32.21,2.51c20.23,1.55,34.84,7.86,43.83,18.94,8.36,10.82,12.55,24.54,12.55,41.16-.25,19.45-7.92,34.46-23,45.02-14.96,10.82-34.1,16.36-57.41,16.62-31.67,0-60.15-11.96-85.45-35.88l27.2-27.62Z"/>
      <path class="cls-2" d="m700.67,363.41h-.75c-3.61,6.82-9.22,11.83-16.81,15.05-7.48,3.34-17.81,5.01-31.01,5.01-21.68-.26-38.37-6.17-50.07-17.75-12.33-11.32-18.5-25.79-18.5-43.42s5.36-30.81,16.07-41.87c10.71-11.32,26.41-17.11,47.08-17.37h54v-21.14c.26-17.71-13.01-26.31-39.81-25.79-9.72,0-17.38,1.03-22.99,3.1-5.86,2.46-10.47,6.59-13.83,12.41l-30.66-24.15c14.81-19.96,36.67-29.68,65.56-29.17,24.4-.26,43.89,4.5,58.46,14.28,14.56,10.04,21.97,27.28,22.22,51.72v136.83h-38.95v-17.75Zm0-67.19h-46.81c-22.73.52-33.96,8.56-33.7,24.14,0,6.82,2.93,12.62,8.8,17.38,5.62,5.28,14.92,7.92,27.9,7.92,16.35.26,27.9-1.74,34.64-5.99,6.12-4.25,9.18-13.9,9.18-28.97v-14.49Z"/>
      <path class="cls-2" d="m796.39,180.84h38.95v21.23h.75c12.82-15.82,29.63-23.74,50.43-23.74,16.06,0,30.75,5.86,44.08,17.56,13.2,11.84,20.11,29.21,20.73,52.11v133.16h-38.95v-119.42c0-14.04-3.62-24.73-10.85-32.08-7.1-7.47-16.27-11.21-27.49-11.21s-20.44,3.74-27.67,11.21c-7.36,7.35-11.03,18.04-11.03,32.08v119.42h-38.95v-200.32Z"/>
      <path class="cls-2" d="m1037.98,296.23c0,16.1,4.49,28.33,13.47,36.69,8.35,8.5,19.33,12.75,32.92,12.75,15.84,0,29.99-6.5,42.46-19.51l28.24,24.91c-19.81,21.86-43.11,32.66-69.89,32.41-10.22,0-20.19-1.54-29.9-4.63-4.86-1.67-9.59-3.92-14.2-6.75-4.86-2.44-9.41-5.47-13.64-9.07-8.22-7.46-14.89-17.88-20-31.26-5.61-12.86-8.41-29.59-8.41-50.18s2.43-36.28,7.29-49.4c4.85-13.38,11.08-23.93,18.68-31.65,7.72-7.85,16.38-13.51,25.97-16.98,9.47-3.47,18.81-5.21,28.03-5.21,22.17.26,40.92,7.79,56.24,22.59,15.57,15.06,23.48,35.78,23.73,62.15v33.16h-121Zm82.06-33.16c-.5-15.64-4.56-27.47-12.18-35.49-7.5-7.63-17.11-11.44-28.85-11.44s-21.36,3.81-28.85,11.44c-7.37,8.02-11.43,19.84-12.18,35.49h82.06Z"/>
    </g>
  </g>
</svg>